<svg width="375" height="367" viewBox="0 0 375 367" fill="none" xmlns="http://www.w3.org/2000/svg">
<path d="M206.25 128.333L168.75 128.333L168.75 91.6668L206.25 91.6668L206.25 128.333ZM206.25 275L168.75 275L168.75 165L206.25 165L206.25 275ZM187.687 366.667C291.187 366.667 375 284.533 375 183.333C375 82.1334 291.188 0.000114743 187.688 0.000105695C84 9.66303e-05 -5.64288e-06 82.1334 -1.44901e-05 183.333C-2.33373e-05 284.533 84 366.667 187.687 366.667ZM187.5 36.6668C270.375 36.6668 337.5 102.3 337.5 183.333C337.5 264.367 270.375 330 187.5 330C104.625 330 37.5 264.367 37.5 183.333C37.5 102.3 104.625 36.6668 187.5 36.6668Z" fill="white"/>
</svg>
