<svg width="450" height="450" viewBox="0 0 450 450" fill="none" xmlns="http://www.w3.org/2000/svg">
<path d="M225 272.093C251.009 272.093 272.093 251.009 272.093 225C272.093 198.991 251.009 177.907 225 177.907C198.991 177.907 177.907 198.991 177.907 225C177.907 251.009 198.991 272.093 225 272.093Z" fill="black"/>
<path d="M225 0C100.736 0 0 100.736 0 225C0 349.264 100.736 450 225 450C349.264 450 450 349.264 450 225C450 100.736 349.264 0 225 0ZM364.012 282.186C362.932 303.577 356.921 324.671 341.332 340.095C325.592 355.665 304.398 361.466 282.801 362.535H167.2C145.6 361.466 124.409 355.668 108.669 340.095C93.0789 324.671 87.0687 303.577 85.9887 282.186V167.814C87.0687 146.423 93.0798 125.329 108.669 109.904C124.409 94.3344 145.603 88.533 167.2 87.4647H282.8C304.4 88.533 325.591 94.3317 341.331 109.904C356.921 125.329 362.931 146.423 364.011 167.814L364.012 282.186Z" fill="black"/>
<path d="M281.56 113.791C253.372 113.021 196.953 113.021 168.766 113.791C154.097 114.193 137.468 117.832 127.016 128.956C116.156 140.519 112.052 154.49 111.636 170.118C110.904 197.549 111.636 279.882 111.636 279.882C112.113 295.509 116.156 309.481 127.016 321.044C137.468 332.172 154.097 335.807 168.766 336.209C196.953 336.979 253.372 336.979 281.56 336.209C296.228 335.807 312.858 332.168 323.309 321.044C334.169 309.481 338.273 295.51 338.689 279.882V170.118C338.273 154.49 334.169 140.519 323.309 128.956C312.854 117.828 296.225 114.193 281.56 113.791ZM225.159 298.062C210.658 298.062 196.483 293.777 184.427 285.749C172.37 277.721 162.973 266.31 157.423 252.96C151.874 239.609 150.422 224.919 153.251 210.746C156.08 196.574 163.063 183.555 173.316 173.337C183.57 163.119 196.634 156.161 210.856 153.342C225.078 150.523 239.819 151.97 253.216 157.499C266.613 163.029 278.063 172.394 286.119 184.409C294.175 196.424 298.475 210.55 298.475 225C298.475 244.377 290.751 262.961 277.001 276.663C263.252 290.364 244.604 298.062 225.159 298.062ZM298.787 167.019C295.887 167.018 293.052 166.161 290.642 164.555C288.231 162.949 286.352 160.666 285.243 157.996C284.133 155.326 283.843 152.388 284.41 149.554C284.976 146.719 286.373 144.116 288.423 142.073C290.474 140.03 293.087 138.638 295.931 138.075C298.776 137.511 301.724 137.801 304.403 138.907C307.082 140.013 309.372 141.886 310.983 144.289C312.594 146.692 313.454 149.517 313.454 152.407C313.454 154.326 313.075 156.226 312.337 157.999C311.6 159.772 310.52 161.383 309.158 162.74C307.796 164.097 306.179 165.174 304.4 165.908C302.62 166.642 300.713 167.019 298.787 167.019Z" fill="black"/>
</svg>
