<svg width="450" height="450" viewBox="0 0 450 450" fill="none" xmlns="http://www.w3.org/2000/svg">
<rect x="85" y="94" width="288" height="261" fill="white"/>
<path d="M225 450C349.294 450 450 349.294 450 225C450 100.706 349.294 0 225 0C100.706 0 0 100.706 0 225C0 349.294 100.706 450 225 450ZM102.956 220.125L319.894 136.481C329.963 132.844 338.756 138.938 335.494 154.163L335.512 154.144L298.575 328.163C295.837 340.5 288.506 343.5 278.25 337.688L222 296.231L194.869 322.369C191.869 325.369 189.338 327.9 183.525 327.9L187.519 270.656L291.769 176.475C296.306 172.481 290.756 170.231 284.775 174.206L155.944 255.319L100.406 237.994C88.35 234.169 88.0875 225.937 102.956 220.125V220.125Z" fill="#FFD561"/>
</svg>
