<svg width="22" height="40" viewBox="0 0 22 40" fill="none" xmlns="http://www.w3.org/2000/svg">
<g clip-path="url(#clip0_69_1680)">
<path d="M3.13232 13.4819V19.964H8.30739L3.13232 13.4819Z" fill="#FFD561"/>
<path d="M3.13232 26.4464V19.9641H8.30739L3.13232 26.4464Z" fill="#FFD561"/>
<path d="M18.6838 31.6486V19.9641H13.509L18.6838 31.6486Z" fill="#FFD561"/>
<path d="M18.6838 8.27979V19.964H13.509L18.6838 8.27979Z" fill="#FFD561"/>
<path d="M3.13232 3.10498L13.5093 36.8234H18.6842L3.13232 3.10498Z" fill="#FFD561"/>
<path d="M3.13232 36.8234L13.5093 3.10498H18.6842L3.13232 36.8234Z" fill="#FFD561"/>
<path d="M21.2715 0.517464V39.4109H0.517464V0.517464H21.2715ZM21.789 0H21.2715H0.517464H0V0.517464V39.4109V39.9284H0.517464H21.2715H21.789V39.4109V0.517464V0Z" fill="#FFD561"/>
</g>
<defs>
<clipPath id="clip0_69_1680">
<rect width="21.789" height="39.9284" fill="white"/>
</clipPath>
</defs>
</svg>
