<svg width="23" height="40" viewBox="0 0 23 40" fill="none" xmlns="http://www.w3.org/2000/svg">
<g clip-path="url(#clip0_217_1007)">
<path d="M3.53369 13.4819V19.964H8.70876L3.53369 13.4819Z" fill="black"/>
<path d="M3.53369 26.4464V19.9641H8.70876L3.53369 26.4464Z" fill="black"/>
<path d="M19.085 31.6486V19.9641H13.9102L19.085 31.6486Z" fill="black"/>
<path d="M19.085 8.27979V19.964H13.9102L19.085 8.27979Z" fill="black"/>
<path d="M3.53369 3.10498L13.9107 36.8234H19.0856L3.53369 3.10498Z" fill="black"/>
<path d="M3.53369 36.8234L13.9107 3.10498H19.0856L3.53369 36.8234Z" fill="black"/>
<path d="M21.6729 0.517464V39.4109H0.918831V0.517464H21.6729ZM22.1903 0H21.6729H0.918831H0.401367V0.517464V39.4109V39.9284H0.918831H21.6729H22.1903V39.4109V0.517464V0Z" fill="black"/>
</g>
<defs>
<clipPath id="clip0_217_1007">
<rect width="21.789" height="39.9284" fill="white" transform="translate(0.401367)"/>
</clipPath>
</defs>
</svg>
