<svg width="45" height="45" viewBox="0 0 45 45" fill="none" xmlns="http://www.w3.org/2000/svg">
<circle cx="22.5" cy="22.5" r="22.5" fill="#FFD561"/>
<path d="M32.209 26.597C30.7181 26.597 29.2757 26.3546 27.9302 25.9182C27.506 25.7728 27.0332 25.8819 26.706 26.2091L24.8029 28.597C21.3726 26.9606 18.1605 23.8697 16.4514 20.3182L18.8151 18.3061C19.1423 17.9667 19.2393 17.494 19.106 17.0697C18.6575 15.7243 18.4272 14.2819 18.4272 12.7909C18.4272 12.1364 17.8817 11.5909 17.2272 11.5909H13.0332C12.3787 11.5909 11.5908 11.8819 11.5908 12.7909C11.5908 24.0515 20.9605 33.4091 32.209 33.4091C33.0696 33.4091 33.409 32.6455 33.409 31.9788V27.797C33.409 27.1425 32.8635 26.597 32.209 26.597Z" fill="white"/>
</svg>
